<svg version="1.1" xmlns="http://www.w3.org/2000/svg" xmlns:xlink="http://www.w3.org/1999/xlink" width="750" height="331"><defs></defs><g><g transform="translate(-230,-206) scale(1,1)"><rect fill="#C0C0C0" stroke="none" x="775" y="223" width="202" height="105" opacity="0.2"></rect></g><g transform="translate(-230,-206) scale(1,1)"><rect fill="#ffffff" stroke="none" x="768" y="216" width="202" height="105"></rect></g><g transform="translate(-230,-206) scale(1,1)"><path fill="none" stroke="#000000" d="M 768 216 L 970 216 L 970 321 L 768 321 L 768 216 Z Z" stroke-miterlimit="10"></path></g><g transform="translate(-230,-206) scale(1,1)"><path fill="none" stroke="#000000" d="M 768 239 L 970 239" stroke-miterlimit="10"></path></g><g transform="translate(-230,-206) scale(1,1)"><path fill="none" stroke="#000000" d="M 796 239 L 796 321" stroke-miterlimit="10"></path></g><g transform="translate(-230,-206) scale(1,1)"><path fill="none" stroke="#000000" d="M 898 239 L 898 321" stroke-miterlimit="10"></path></g><g transform="translate(-230,-206) scale(1,1)"><g><path fill="none" stroke="none"></path><text fill="#000000" stroke="none" font-family="Arial" font-size="13px" font-style="normal" font-weight="bold" text-decoration="none" x="855.5" y="233.5">User</text></g></g><g transform="translate(-230,-206) scale(1,1)"><g><path fill="none" stroke="none"></path><text fill="#000000" stroke="none" font-family="Arial" font-size="13px" font-style="normal" font-weight="normal" text-decoration="none" x="773" y="257">PK</text></g></g><g transform="translate(-230,-206) scale(1,1)"><g><path fill="none" stroke="none"></path><text fill="#000000" stroke="none" font-family="Arial" font-size="13px" font-style="normal" font-weight="normal" text-decoration="none" x="801" y="257">ID</text></g></g><g transform="translate(-230,-206) scale(1,1)"><g><path fill="none" stroke="none"></path><text fill="#000000" stroke="none" font-family="Arial" font-size="13px" font-style="normal" font-weight="normal" text-decoration="none" x="903" y="257">INTEGER</text></g></g><g transform="translate(-230,-206) scale(1,1)"><g><path fill="none" stroke="none"></path><text fill="#000000" stroke="none" font-family="Arial" font-size="13px" font-style="normal" font-weight="normal" text-decoration="none" x="773" y="272"></text></g></g><g transform="translate(-230,-206) scale(1,1)"><g><path fill="none" stroke="none"></path><text fill="#000000" stroke="none" font-family="Arial" font-size="13px" font-style="normal" font-weight="normal" text-decoration="none" x="801" y="272">Name</text></g></g><g transform="translate(-230,-206) scale(1,1)"><g><path fill="none" stroke="none"></path><text fill="#000000" stroke="none" font-family="Arial" font-size="13px" font-style="normal" font-weight="normal" text-decoration="none" x="903" y="272">VARCHAR</text></g></g><g transform="translate(-230,-206) scale(1,1)"><g><path fill="none" stroke="none"></path><text fill="#000000" stroke="none" font-family="Arial" font-size="13px" font-style="normal" font-weight="normal" text-decoration="none" x="773" y="287"></text></g></g><g transform="translate(-230,-206) scale(1,1)"><g><path fill="none" stroke="none"></path><text fill="#000000" stroke="none" font-family="Arial" font-size="13px" font-style="normal" font-weight="normal" text-decoration="none" x="801" y="287">Role</text></g></g><g transform="translate(-230,-206) scale(1,1)"><g><path fill="none" stroke="none"></path><text fill="#000000" stroke="none" font-family="Arial" font-size="13px" font-style="normal" font-weight="normal" text-decoration="none" x="903" y="287">VARCHAR</text></g></g><g transform="translate(-230,-206) scale(1,1)"><g><path fill="none" stroke="none"></path><text fill="#000000" stroke="none" font-family="Arial" font-size="13px" font-style="normal" font-weight="normal" text-decoration="none" x="773" y="302"></text></g></g><g transform="translate(-230,-206) scale(1,1)"><g><path fill="none" stroke="none"></path><text fill="#000000" stroke="none" font-family="Arial" font-size="13px" font-style="normal" font-weight="normal" text-decoration="none" x="801" y="302">Salt</text></g></g><g transform="translate(-230,-206) scale(1,1)"><g><path fill="none" stroke="none"></path><text fill="#000000" stroke="none" font-family="Arial" font-size="13px" font-style="normal" font-weight="normal" text-decoration="none" x="903" y="302">BINARY</text></g></g><g transform="translate(-230,-206) scale(1,1)"><g><path fill="none" stroke="none"></path><text fill="#000000" stroke="none" font-family="Arial" font-size="13px" font-style="normal" font-weight="normal" text-decoration="none" x="773" y="317"></text></g></g><g transform="translate(-230,-206) scale(1,1)"><g><path fill="none" stroke="none"></path><text fill="#000000" stroke="none" font-family="Arial" font-size="13px" font-style="normal" font-weight="normal" text-decoration="none" x="801" y="317">PasswordHash</text></g></g><g transform="translate(-230,-206) scale(1,1)"><g><path fill="none" stroke="none"></path><text fill="#000000" stroke="none" font-family="Arial" font-size="13px" font-style="normal" font-weight="normal" text-decoration="none" x="903" y="317">BINARY</text></g></g><g transform="translate(-230,-206) scale(1,1)"><rect fill="#C0C0C0" stroke="none" x="791" y="399" width="181" height="135" opacity="0.2"></rect></g><g transform="translate(-230,-206) scale(1,1)"><rect fill="#ffffff" stroke="none" x="784" y="392" width="181" height="135"></rect></g><g transform="translate(-230,-206) scale(1,1)"><path fill="none" stroke="#000000" d="M 784 392 L 965 392 L 965 527 L 784 527 L 784 392 Z Z" stroke-miterlimit="10"></path></g><g transform="translate(-230,-206) scale(1,1)"><path fill="none" stroke="#000000" d="M 784 415 L 965 415" stroke-miterlimit="10"></path></g><g transform="translate(-230,-206) scale(1,1)"><path fill="none" stroke="#000000" d="M 812 415 L 812 527" stroke-miterlimit="10"></path></g><g transform="translate(-230,-206) scale(1,1)"><path fill="none" stroke="#000000" d="M 893 415 L 893 527" stroke-miterlimit="10"></path></g><g transform="translate(-230,-206) scale(1,1)"><g><path fill="none" stroke="none"></path><text fill="#000000" stroke="none" font-family="Arial" font-size="13px" font-style="normal" font-weight="bold" text-decoration="none" x="852.5" y="409.5">Activity</text></g></g><g transform="translate(-230,-206) scale(1,1)"><g><path fill="none" stroke="none"></path><text fill="#000000" stroke="none" font-family="Arial" font-size="13px" font-style="normal" font-weight="normal" text-decoration="none" x="789" y="433">PK</text></g></g><g transform="translate(-230,-206) scale(1,1)"><g><path fill="none" stroke="none"></path><text fill="#000000" stroke="none" font-family="Arial" font-size="13px" font-style="normal" font-weight="normal" text-decoration="none" x="817" y="433">ID</text></g></g><g transform="translate(-230,-206) scale(1,1)"><g><path fill="none" stroke="none"></path><text fill="#000000" stroke="none" font-family="Arial" font-size="13px" font-style="normal" font-weight="normal" text-decoration="none" x="898" y="433">INTEGER</text></g></g><g transform="translate(-230,-206) scale(1,1)"><g><path fill="none" stroke="none"></path><text fill="#000000" stroke="none" font-family="Arial" font-size="13px" font-style="normal" font-weight="normal" text-decoration="none" x="789" y="448">FK</text></g></g><g transform="translate(-230,-206) scale(1,1)"><g><path fill="none" stroke="none"></path><text fill="#000000" stroke="none" font-family="Arial" font-size="13px" font-style="normal" font-weight="normal" text-decoration="none" x="817" y="448">PhaseID</text></g></g><g transform="translate(-230,-206) scale(1,1)"><g><path fill="none" stroke="none"></path><text fill="#000000" stroke="none" font-family="Arial" font-size="13px" font-style="normal" font-weight="normal" text-decoration="none" x="898" y="448">INTEGER</text></g></g><g transform="translate(-230,-206) scale(1,1)"><g><path fill="none" stroke="none"></path><text fill="#000000" stroke="none" font-family="Arial" font-size="13px" font-style="normal" font-weight="normal" text-decoration="none" x="789" y="463">FK</text></g></g><g transform="translate(-230,-206) scale(1,1)"><g><path fill="none" stroke="none"></path><text fill="#000000" stroke="none" font-family="Arial" font-size="13px" font-style="normal" font-weight="normal" text-decoration="none" x="817" y="463">UserID</text></g></g><g transform="translate(-230,-206) scale(1,1)"><g><path fill="none" stroke="none"></path><text fill="#000000" stroke="none" font-family="Arial" font-size="13px" font-style="normal" font-weight="normal" text-decoration="none" x="898" y="463">INTEGER</text></g></g><g transform="translate(-230,-206) scale(1,1)"><g><path fill="none" stroke="none"></path><text fill="#000000" stroke="none" font-family="Arial" font-size="13px" font-style="normal" font-weight="normal" text-decoration="none" x="789" y="478"></text></g></g><g transform="translate(-230,-206) scale(1,1)"><g><path fill="none" stroke="none"></path><text fill="#000000" stroke="none" font-family="Arial" font-size="13px" font-style="normal" font-weight="normal" text-decoration="none" x="817" y="478">Description</text></g></g><g transform="translate(-230,-206) scale(1,1)"><g><path fill="none" stroke="none"></path><text fill="#000000" stroke="none" font-family="Arial" font-size="13px" font-style="normal" font-weight="normal" text-decoration="none" x="898" y="478">VARCHAR</text></g></g><g transform="translate(-230,-206) scale(1,1)"><g><path fill="none" stroke="none"></path><text fill="#000000" stroke="none" font-family="Arial" font-size="13px" font-style="normal" font-weight="normal" text-decoration="none" x="789" y="493"></text></g></g><g transform="translate(-230,-206) scale(1,1)"><g><path fill="none" stroke="none"></path><text fill="#000000" stroke="none" font-family="Arial" font-size="13px" font-style="normal" font-weight="normal" text-decoration="none" x="817" y="493">Start</text></g></g><g transform="translate(-230,-206) scale(1,1)"><g><path fill="none" stroke="none"></path><text fill="#000000" stroke="none" font-family="Arial" font-size="13px" font-style="normal" font-weight="normal" text-decoration="none" x="898" y="493">DATE</text></g></g><g transform="translate(-230,-206) scale(1,1)"><g><path fill="none" stroke="none"></path><text fill="#000000" stroke="none" font-family="Arial" font-size="13px" font-style="normal" font-weight="normal" text-decoration="none" x="789" y="508"></text></g></g><g transform="translate(-230,-206) scale(1,1)"><g><path fill="none" stroke="none"></path><text fill="#000000" stroke="none" font-family="Arial" font-size="13px" font-style="normal" font-weight="normal" text-decoration="none" x="817" y="508">End</text></g></g><g transform="translate(-230,-206) scale(1,1)"><g><path fill="none" stroke="none"></path><text fill="#000000" stroke="none" font-family="Arial" font-size="13px" font-style="normal" font-weight="normal" text-decoration="none" x="898" y="508">DATE</text></g></g><g transform="translate(-230,-206) scale(1,1)"><g><path fill="none" stroke="none"></path><text fill="#000000" stroke="none" font-family="Arial" font-size="13px" font-style="normal" font-weight="normal" text-decoration="none" x="789" y="523">N</text></g></g><g transform="translate(-230,-206) scale(1,1)"><g><path fill="none" stroke="none"></path><text fill="#000000" stroke="none" font-family="Arial" font-size="13px" font-style="normal" font-weight="normal" text-decoration="none" x="817" y="523">Comment</text></g></g><g transform="translate(-230,-206) scale(1,1)"><g><path fill="none" stroke="none"></path><text fill="#000000" stroke="none" font-family="Arial" font-size="13px" font-style="normal" font-weight="normal" text-decoration="none" x="898" y="523">VARCHAR</text></g></g><g transform="translate(-230,-206) scale(1,1)"><rect fill="#C0C0C0" stroke="none" x="247" y="447" width="161" height="75" opacity="0.2"></rect></g><g transform="translate(-230,-206) scale(1,1)"><rect fill="#ffffff" stroke="none" x="240" y="440" width="161" height="75"></rect></g><g transform="translate(-230,-206) scale(1,1)"><path fill="none" stroke="#000000" d="M 240 440 L 401 440 L 401 515 L 240 515 L 240 440 Z Z" stroke-miterlimit="10"></path></g><g transform="translate(-230,-206) scale(1,1)"><path fill="none" stroke="#000000" d="M 240 463 L 401 463" stroke-miterlimit="10"></path></g><g transform="translate(-230,-206) scale(1,1)"><path fill="none" stroke="#000000" d="M 268 463 L 268 515" stroke-miterlimit="10"></path></g><g transform="translate(-230,-206) scale(1,1)"><path fill="none" stroke="#000000" d="M 313 463 L 313 515" stroke-miterlimit="10"></path></g><g transform="translate(-230,-206) scale(1,1)"><g><path fill="none" stroke="none"></path><text fill="#000000" stroke="none" font-family="Arial" font-size="13px" font-style="normal" font-weight="bold" text-decoration="none" x="300" y="457.5">Project</text></g></g><g transform="translate(-230,-206) scale(1,1)"><g><path fill="none" stroke="none"></path><text fill="#000000" stroke="none" font-family="Arial" font-size="13px" font-style="normal" font-weight="normal" text-decoration="none" x="245" y="481">PK</text></g></g><g transform="translate(-230,-206) scale(1,1)"><g><path fill="none" stroke="none"></path><text fill="#000000" stroke="none" font-family="Arial" font-size="13px" font-style="normal" font-weight="normal" text-decoration="none" x="273" y="481">ID</text></g></g><g transform="translate(-230,-206) scale(1,1)"><g><path fill="none" stroke="none"></path><text fill="#000000" stroke="none" font-family="Arial" font-size="13px" font-style="normal" font-weight="normal" text-decoration="none" x="318" y="481">INTEGER</text></g></g><g transform="translate(-230,-206) scale(1,1)"><g><path fill="none" stroke="none"></path><text fill="#000000" stroke="none" font-family="Arial" font-size="13px" font-style="normal" font-weight="normal" text-decoration="none" x="245" y="496"></text></g></g><g transform="translate(-230,-206) scale(1,1)"><g><path fill="none" stroke="none"></path><text fill="#000000" stroke="none" font-family="Arial" font-size="13px" font-style="normal" font-weight="normal" text-decoration="none" x="273" y="496">Name</text></g></g><g transform="translate(-230,-206) scale(1,1)"><g><path fill="none" stroke="none"></path><text fill="#000000" stroke="none" font-family="Arial" font-size="13px" font-style="normal" font-weight="normal" text-decoration="none" x="318" y="496">VARCHAR</text></g></g><g transform="translate(-230,-206) scale(1,1)"><rect fill="#C0C0C0" stroke="none" x="511" y="455" width="188" height="75" opacity="0.2"></rect></g><g transform="translate(-230,-206) scale(1,1)"><rect fill="#ffffff" stroke="none" x="504" y="448" width="188" height="75"></rect></g><g transform="translate(-230,-206) scale(1,1)"><path fill="none" stroke="#000000" d="M 504 448 L 692 448 L 692 523 L 504 523 L 504 448 Z Z" stroke-miterlimit="10"></path></g><g transform="translate(-230,-206) scale(1,1)"><path fill="none" stroke="#000000" d="M 504 471 L 692 471" stroke-miterlimit="10"></path></g><g transform="translate(-230,-206) scale(1,1)"><path fill="none" stroke="#000000" d="M 532 471 L 532 523" stroke-miterlimit="10"></path></g><g transform="translate(-230,-206) scale(1,1)"><path fill="none" stroke="#000000" d="M 599 471 L 599 523" stroke-miterlimit="10"></path></g><g transform="translate(-230,-206) scale(1,1)"><g><path fill="none" stroke="none"></path><text fill="#000000" stroke="none" font-family="Arial" font-size="13px" font-style="normal" font-weight="bold" text-decoration="none" x="555.5" y="465.5">ProjectPhases</text></g></g><g transform="translate(-230,-206) scale(1,1)"><g><path fill="none" stroke="none"></path><text fill="#000000" stroke="none" font-family="Arial" font-size="13px" font-style="normal" font-weight="normal" text-decoration="none" x="509" y="489">PK</text></g></g><g transform="translate(-230,-206) scale(1,1)"><g><path fill="none" stroke="none"></path><text fill="#000000" stroke="none" font-family="Arial" font-size="13px" font-style="normal" font-weight="normal" text-decoration="none" x="537" y="489">ID</text></g></g><g transform="translate(-230,-206) scale(1,1)"><g><path fill="none" stroke="none"></path><text fill="#000000" stroke="none" font-family="Arial" font-size="13px" font-style="normal" font-weight="normal" text-decoration="none" x="604" y="489">INTEGER</text></g></g><g transform="translate(-230,-206) scale(1,1)"><g><path fill="none" stroke="none"></path><text fill="#000000" stroke="none" font-family="Arial" font-size="13px" font-style="normal" font-weight="normal" text-decoration="none" x="509" y="504">FK</text></g></g><g transform="translate(-230,-206) scale(1,1)"><g><path fill="none" stroke="none"></path><text fill="#000000" stroke="none" font-family="Arial" font-size="13px" font-style="normal" font-weight="normal" text-decoration="none" x="537" y="504">ProjectID</text></g></g><g transform="translate(-230,-206) scale(1,1)"><g><path fill="none" stroke="none"></path><text fill="#000000" stroke="none" font-family="Arial" font-size="13px" font-style="normal" font-weight="normal" text-decoration="none" x="604" y="504">INTEGER</text></g></g><g transform="translate(-230,-206) scale(1,1)"><g><path fill="none" stroke="none"></path><text fill="#000000" stroke="none" font-family="Arial" font-size="13px" font-style="normal" font-weight="normal" text-decoration="none" x="509" y="519"></text></g></g><g transform="translate(-230,-206) scale(1,1)"><g><path fill="none" stroke="none"></path><text fill="#000000" stroke="none" font-family="Arial" font-size="13px" font-style="normal" font-weight="normal" text-decoration="none" x="537" y="519">Name</text></g></g><g transform="translate(-230,-206) scale(1,1)"><g><path fill="none" stroke="none"></path><text fill="#000000" stroke="none" font-family="Arial" font-size="13px" font-style="normal" font-weight="normal" text-decoration="none" x="604" y="519">VARCHAR</text></g></g><g transform="translate(-230,-206) scale(1,1)"><rect fill="#C0C0C0" stroke="none" x="247" y="223" width="166" height="75" opacity="0.2"></rect></g><g transform="translate(-230,-206) scale(1,1)"><rect fill="#ffffff" stroke="none" x="240" y="216" width="166" height="75"></rect></g><g transform="translate(-230,-206) scale(1,1)"><path fill="none" stroke="#000000" d="M 240 216 L 406 216 L 406 291 L 240 291 L 240 216 Z Z" stroke-miterlimit="10"></path></g><g transform="translate(-230,-206) scale(1,1)"><path fill="none" stroke="#000000" d="M 240 239 L 406 239" stroke-miterlimit="10"></path></g><g transform="translate(-230,-206) scale(1,1)"><path fill="none" stroke="#000000" d="M 267 239 L 267 291" stroke-miterlimit="10"></path></g><g transform="translate(-230,-206) scale(1,1)"><path fill="none" stroke="#000000" d="M 334 239 L 334 291" stroke-miterlimit="10"></path></g><g transform="translate(-230,-206) scale(1,1)"><g><path fill="none" stroke="none"></path><text fill="#000000" stroke="none" font-family="Arial" font-size="13px" font-style="normal" font-weight="bold" text-decoration="none" x="275.5" y="233.5">ProjectMembers</text></g></g><g transform="translate(-230,-206) scale(1,1)"><g><path fill="none" stroke="none"></path><text fill="#000000" stroke="none" font-family="Arial" font-size="13px" font-style="normal" font-weight="normal" text-decoration="none" x="245" y="257">FK</text></g></g><g transform="translate(-230,-206) scale(1,1)"><g><path fill="none" stroke="none"></path><text fill="#000000" stroke="none" font-family="Arial" font-size="13px" font-style="normal" font-weight="normal" text-decoration="none" x="272" y="257">UserID</text></g></g><g transform="translate(-230,-206) scale(1,1)"><g><path fill="none" stroke="none"></path><text fill="#000000" stroke="none" font-family="Arial" font-size="13px" font-style="normal" font-weight="normal" text-decoration="none" x="339" y="257">INTEGER</text></g></g><g transform="translate(-230,-206) scale(1,1)"><g><path fill="none" stroke="none"></path><text fill="#000000" stroke="none" font-family="Arial" font-size="13px" font-style="normal" font-weight="normal" text-decoration="none" x="245" y="272">FK</text></g></g><g transform="translate(-230,-206) scale(1,1)"><g><path fill="none" stroke="none"></path><text fill="#000000" stroke="none" font-family="Arial" font-size="13px" font-style="normal" font-weight="normal" text-decoration="none" x="272" y="272">ProjectID</text></g></g><g transform="translate(-230,-206) scale(1,1)"><g><path fill="none" stroke="none"></path><text fill="#000000" stroke="none" font-family="Arial" font-size="13px" font-style="normal" font-weight="normal" text-decoration="none" x="339" y="272">INTEGER</text></g></g><g transform="translate(-230,-206) scale(1,1)"><g><path fill="none" stroke="none"></path><text fill="#000000" stroke="none" font-family="Arial" font-size="13px" font-style="normal" font-weight="normal" text-decoration="none" x="245" y="287"></text></g></g><g transform="translate(-230,-206) scale(1,1)"><g><path fill="none" stroke="none"></path><text fill="#000000" stroke="none" font-family="Arial" font-size="13px" font-style="normal" font-weight="normal" text-decoration="none" x="272" y="287">Role</text></g></g><g transform="translate(-230,-206) scale(1,1)"><g><path fill="none" stroke="none"></path><text fill="#000000" stroke="none" font-family="Arial" font-size="13px" font-style="normal" font-weight="normal" text-decoration="none" x="339" y="287">VARCHAR</text></g></g><g transform="translate(-230,-206) scale(1,1)"><path fill="none" stroke="#000000" d="M 768 240 L 406 240" stroke-miterlimit="10"></path></g><g transform="translate(-230,-206) scale(1,1)"><path fill="none" stroke="#000000" d="M 420 240 L 406 233" stroke-miterlimit="10"></path></g><g transform="translate(-230,-206) scale(1,1)"><path fill="none" stroke="#000000" d="M 420 240 L 406 247" stroke-miterlimit="10"></path></g><g transform="translate(-230,-206) scale(1,1)"><path fill="#FFFFFF" stroke="none" d="M 421 240 C 421 236.1340064 424.1340064 233 428 233 C 431.8659936 233 435 236.1340064 435 240 C 435 243.8659936 431.8659936 247 428 247 C 424.1340064 247 421 243.8659936 421 240 Z"></path></g><g transform="translate(-230,-206) scale(1,1)"><path fill="none" stroke="#000000" d="M 421 240 C 421 236.1340064 424.1340064 233 428 233 C 431.8659936 233 435 236.1340064 435 240 C 435 243.8659936 431.8659936 247 428 247 C 424.1340064 247 421 243.8659936 421 240 Z" stroke-miterlimit="10"></path></g><g transform="translate(-230,-206) scale(1,1)"><path fill="none" stroke="#000000" d="M 761 247 L 761 233" stroke-miterlimit="10"></path></g><g transform="translate(-230,-206) scale(1,1)"><g><path fill="none" stroke="none"></path><text fill="#000000" stroke="none" font-family="Arial" font-size="13px" font-style="normal" font-weight="normal" text-decoration="none" x="545.5" y="261.5">participates in</text></g></g><g transform="translate(-230,-206) scale(1,1)"><g><path fill="none" stroke="none"></path><text fill="#000000" stroke="none" font-family="Arial" font-size="13px" font-style="normal" font-weight="normal" text-decoration="none" x="741.5" y="260.5"></text></g></g><g transform="translate(-230,-206) scale(1,1)"><g><path fill="none" stroke="none"></path><text fill="#000000" stroke="none" font-family="Arial" font-size="13px" font-style="normal" font-weight="normal" text-decoration="none" x="430.5" y="260.5"></text></g></g><g transform="translate(-230,-206) scale(1,1)"><path fill="none" stroke="#000000" d="M 401 483 L 504 483" stroke-miterlimit="10"></path></g><g transform="translate(-230,-206) scale(1,1)"><path fill="none" stroke="#000000" d="M 490 483 L 504 490" stroke-miterlimit="10"></path></g><g transform="translate(-230,-206) scale(1,1)"><path fill="none" stroke="#000000" d="M 490 483 L 504 476" stroke-miterlimit="10"></path></g><g transform="translate(-230,-206) scale(1,1)"><path fill="none" stroke="#000000" d="M 408 476 L 408 490" stroke-miterlimit="10"></path></g><g transform="translate(-230,-206) scale(1,1)"><g><path fill="none" stroke="none"></path><text fill="#000000" stroke="none" font-family="Arial" font-size="13px" font-style="normal" font-weight="normal" text-decoration="none" x="441.5" y="474.5">has</text></g></g><g transform="translate(-230,-206) scale(1,1)"><g><path fill="none" stroke="none"></path><text fill="#000000" stroke="none" font-family="Arial" font-size="13px" font-style="normal" font-weight="normal" text-decoration="none" x="425.5" y="474.5"></text></g></g><g transform="translate(-230,-206) scale(1,1)"><g><path fill="none" stroke="none"></path><text fill="#000000" stroke="none" font-family="Arial" font-size="13px" font-style="normal" font-weight="normal" text-decoration="none" x="477.5" y="474.5"></text></g></g><g transform="translate(-230,-206) scale(1,1)"><path fill="none" stroke="#000000" d="M 692 485 L 784 485" stroke-miterlimit="10"></path></g><g transform="translate(-230,-206) scale(1,1)"><path fill="none" stroke="#000000" d="M 770 485 L 784 492" stroke-miterlimit="10"></path></g><g transform="translate(-230,-206) scale(1,1)"><path fill="none" stroke="#000000" d="M 770 485 L 784 478" stroke-miterlimit="10"></path></g><g transform="translate(-230,-206) scale(1,1)"><path fill="#FFFFFF" stroke="none" d="M 755 485 C 755 481.1340064 758.1340064 478 762 478 C 765.8659936 478 769 481.1340064 769 485 C 769 488.8659936 765.8659936 492 762 492 C 758.1340064 492 755 488.8659936 755 485 Z"></path></g><g transform="translate(-230,-206) scale(1,1)"><path fill="none" stroke="#000000" d="M 755 485 C 755 481.1340064 758.1340064 478 762 478 C 765.8659936 478 769 481.1340064 769 485 C 769 488.8659936 765.8659936 492 762 492 C 758.1340064 492 755 488.8659936 755 485 Z" stroke-miterlimit="10"></path></g><g transform="translate(-230,-206) scale(1,1)"><path fill="none" stroke="#000000" d="M 699 478 L 699 492" stroke-miterlimit="10"></path></g><g transform="translate(-230,-206) scale(1,1)"><g><path fill="none" stroke="none"></path><text fill="#000000" stroke="none" font-family="Arial" font-size="13px" font-style="normal" font-weight="normal" text-decoration="none" x="727.5" y="476.5">has</text></g></g><g transform="translate(-230,-206) scale(1,1)"><g><path fill="none" stroke="none"></path><text fill="#000000" stroke="none" font-family="Arial" font-size="13px" font-style="normal" font-weight="normal" text-decoration="none" x="716.5" y="476.5"></text></g></g><g transform="translate(-230,-206) scale(1,1)"><g><path fill="none" stroke="none"></path><text fill="#000000" stroke="none" font-family="Arial" font-size="13px" font-style="normal" font-weight="normal" text-decoration="none" x="758" y="476.5"></text></g></g><g transform="translate(-230,-206) scale(1,1)"><path fill="none" stroke="#000000" d="M 880 321 L 880 392" stroke-miterlimit="10"></path></g><g transform="translate(-230,-206) scale(1,1)"><path fill="none" stroke="#000000" d="M 880 378 L 873 392" stroke-miterlimit="10"></path></g><g transform="translate(-230,-206) scale(1,1)"><path fill="none" stroke="#000000" d="M 880 378 L 887 392" stroke-miterlimit="10"></path></g><g transform="translate(-230,-206) scale(1,1)"><path fill="#FFFFFF" stroke="none" d="M 873 370 C 873 366.1340064 876.1340064 363 880 363 C 883.8659936 363 887 366.1340064 887 370 C 887 373.8659936 883.8659936 377 880 377 C 876.1340064 377 873 373.8659936 873 370 Z"></path></g><g transform="translate(-230,-206) scale(1,1)"><path fill="none" stroke="#000000" d="M 873 370 C 873 366.1340064 876.1340064 363 880 363 C 883.8659936 363 887 366.1340064 887 370 C 887 373.8659936 883.8659936 377 880 377 C 876.1340064 377 873 373.8659936 873 370 Z" stroke-miterlimit="10"></path></g><g transform="translate(-230,-206) scale(1,1)"><path fill="none" stroke="#000000" d="M 887 328 L 873 328" stroke-miterlimit="10"></path></g><g transform="translate(-230,-206) scale(1,1)"><g><path fill="none" stroke="none"></path><text fill="#000000" stroke="none" font-family="Arial" font-size="13px" font-style="normal" font-weight="normal" text-decoration="none" x="887.5" y="352.5">performs</text></g></g><g transform="translate(-230,-206) scale(1,1)"><g><path fill="none" stroke="none"></path><text fill="#000000" stroke="none" font-family="Arial" font-size="13px" font-style="normal" font-weight="normal" text-decoration="none" x="894.5" y="352.5"></text></g></g><g transform="translate(-230,-206) scale(1,1)"><g><path fill="none" stroke="none"></path><text fill="#000000" stroke="none" font-family="Arial" font-size="13px" font-style="normal" font-weight="normal" text-decoration="none" x="894.5" y="372.5"></text></g></g><g transform="translate(-230,-206) scale(1,1)"><path fill="none" stroke="#000000" d="M 320 440 L 320 291" stroke-miterlimit="10"></path></g><g transform="translate(-230,-206) scale(1,1)"><path fill="none" stroke="#000000" d="M 320 305 L 327 291" stroke-miterlimit="10"></path></g><g transform="translate(-230,-206) scale(1,1)"><path fill="none" stroke="#000000" d="M 320 305 L 313 291" stroke-miterlimit="10"></path></g><g transform="translate(-230,-206) scale(1,1)"><path fill="#FFFFFF" stroke="none" d="M 313 313 C 313 309.1340064 316.1340064 306 320 306 C 323.8659936 306 327 309.1340064 327 313 C 327 316.8659936 323.8659936 320 320 320 C 316.1340064 320 313 316.8659936 313 313 Z"></path></g><g transform="translate(-230,-206) scale(1,1)"><path fill="none" stroke="#000000" d="M 313 313 C 313 309.1340064 316.1340064 306 320 306 C 323.8659936 306 327 309.1340064 327 313 C 327 316.8659936 323.8659936 320 320 320 C 316.1340064 320 313 316.8659936 313 313 Z" stroke-miterlimit="10"></path></g><g transform="translate(-230,-206) scale(1,1)"><path fill="none" stroke="#000000" d="M 313 433 L 327 433" stroke-miterlimit="10"></path></g><g transform="translate(-230,-206) scale(1,1)"><g><path fill="none" stroke="none"></path><text fill="#000000" stroke="none" font-family="Arial" font-size="13px" font-style="normal" font-weight="normal" text-decoration="none" x="294.5" y="420.5">has</text></g></g><g transform="translate(-230,-206) scale(1,1)"><g><path fill="none" stroke="none"></path><text fill="#000000" stroke="none" font-family="Arial" font-size="13px" font-style="normal" font-weight="normal" text-decoration="none" x="304.5" y="322.5"></text></g></g></g></svg>